<svg width="1200" height="300" viewBox="0 0 1200 300" xmlns="http://www.w3.org/2000/svg"><defs><linearGradient id="bg" x1="0" y1="0" x2="1" y2="1"><stop stop-color="#02070a"/><stop offset=".5" stop-color="#07141a"/><stop offset="1" stop-color="#031016"/></linearGradient><radialGradient id="g1"><stop stop-color="#2de1ff" stop-opacity=".22"/><stop offset="1" stop-color="#2de1ff" stop-opacity="0"/></radialGradient><radialGradient id="g2"><stop stop-color="#7b5cff" stop-opacity=".18"/><stop offset="1" stop-color="#7b5cff" stop-opacity="0"/></radialGradient><pattern id="grid" width="50" height="50" patternUnits="userSpaceOnUse"><path d="M50 0H0V50" fill="none" stroke="#8beeff" stroke-opacity=".06"/></pattern><filter id="glow"><feGaussianBlur stdDeviation="3" result="b"/><feMerge><feMergeNode in="b"/><feMergeNode in="SourceGraphic"/></feMerge></filter></defs><rect width="1200" height="300" rx="18" fill="url(#bg)"/><rect width="1200" height="300" fill="url(#grid)"/><circle cx="180" cy="90" r="260" fill="url(#g1)"/><circle cx="1020" cy="220" r="310" fill="url(#g2)"/><g opacity=".55" stroke="#5feaff" stroke-width="1"><path d="M0 230 C180 100 260 280 440 145 S760 70 1200 170" fill="none"/><path d="M0 255 C210 130 300 300 490 170 S800 95 1200 195" fill="none" opacity=".4"/></g><g font-family="monospace" fill="#69e9ff" opacity=".28" font-size="13"><text x="760" y="48">01</text><text x="840" y="90">101101</text><text x="950" y="58">AI</text><text x="1080" y="105">{ }</text><text x="720" y="240">PyTorch</text><text x="930" y="260">FastAPI</text><text x="1060" y="220">ML</text></g><g font-family="Arial, sans-serif"><text x="75" y="120" fill="#ffffff" font-size="52" font-weight="700">KUSHAGRA BURMAN</text><text x="79" y="157" fill="#63e9ff" font-size="20" font-weight="600" letter-spacing="3">AI / ML · BACKEND · RESEARCH</text><text x="80" y="201" fill="#9badb4" font-size="15">Building intelligent systems, scalable APIs &amp; practical ML solutions.</text></g><g filter="url(#glow)" fill="#63e9ff"><circle cx="1125" cy="55" r="3"/><circle cx="1160" cy="85" r="2"/><circle cx="1080" cy="145" r="2"/></g></svg>